<svg width="185" height="185" viewBox="0 0 26 26" version="1.1" xmlns="http://www.w3.org/2000/svg">
	<path d="M19.3993314,11.9737835 C19.3984162,12.0018092 19.3973637,12.0296978 19.3961739,12.0575865 C19.3935197,12.1171126 19.3901791,12.1764559 19.3861521,12.2356621 C19.3819421,12.2995316 19.3767253,12.3628067 19.3710051,12.425899 C19.3683052,12.4548849 19.3658341,12.4839165 19.3628138,12.5128109 C18.8956814,17.0856288 14.4854715,19.5816139 12.6104436,20.4436006 C12.2193666,20.6234135 11.7735132,20.3388583 11.7735132,19.9086879 C11.7735132,19.5970212 11.5303371,19.3429605 11.2192053,19.3206039 C7.22816989,19.0344027 4.0869696,15.6815973 4.14366798,11.6083055 C4.20086974,7.50227889 7.55499786,4.15125644 11.6648299,4.09410765 C15.9288778,4.03485578 19.4040906,7.47041272 19.4040906,11.7168882 C19.4040906,11.8028857 19.4021686,11.888426 19.3993314,11.9737835 M11.773559,1.37157108e-05 C5.27736109,-3.2003325e-05 0.0457339506,5.22675104 0.0457339506,11.7169339 C0.045779712,17.9993238 4.99483016,23.1268965 11.2102818,23.4205042 C11.5253033,23.4353628 11.7735132,23.6935382 11.7735132,24.0085881 L11.7735132,24.7949098 C11.7735132,25.2186796 12.2074229,25.5041035 12.5967609,25.3359489 C15.1982969,24.2122207 23.0948854,20.1666804 23.4857793,12.323717 C23.4859624,12.319968 23.4860997,12.3161733 23.4863285,12.3124244 C23.490447,12.2266554 23.4937876,12.1404751 23.4961214,12.0537918 C23.4966706,12.0347269 23.4973112,12.0157535 23.4977231,11.996643 C23.4998281,11.9038791 23.5012925,11.8107494 23.5012925,11.7168882 C23.5012925,5.24581588 18.2505828,1.37157108e-05 11.773559,1.37157108e-05" fill="#3674E1"></path>
	<path d="M19.3902569,11.9737835 C19.3893417,12.0018092 19.3882892,12.0296978 19.3870994,12.0575865 C19.3844452,12.1171126 19.3810589,12.1764559 19.3770776,12.2356621 C19.3728676,12.2995316 19.3676508,12.3628067 19.3618849,12.425899 C19.3592307,12.4548849 19.3567596,12.4839165 19.3537393,12.5128109 C18.8866069,17.0856288 14.476397,19.5816139 12.6013691,20.4436006 C12.2102921,20.6234135 11.7644387,20.3388583 11.7644387,19.9086879 C11.7644387,19.5970212 11.5212626,19.3429605 11.2101308,19.3206039 C7.2190954,19.0344027 4.07784935,15.6815973 4.1345935,11.6083055 C4.1917495,7.50227889 7.54592338,4.15125644 11.6557554,4.09410765 C15.9198033,4.03485578 19.3950161,7.47041272 19.3950161,11.7168882 C19.3950161,11.8028857 19.3930941,11.888426 19.3902569,11.9737835" fill="#FFFFFF"></path>
	<path d="M11.2150624,12.0080742 C11.0625974,11.8627792 10.9672521,11.6581196 10.9672521,11.4322918 L10.9672521,7.0518138 C10.9672521,6.61377972 11.3259758,6.2553882 11.7644616,6.2553882 C12.2029016,6.2553882 12.5616253,6.61377972 12.5616253,7.0518138 L12.5616253,11.1023494 L15.472664,14.0107357 C15.7826976,14.3204364 15.7826976,14.8273234 15.472664,15.1370698 C15.1626305,15.4468163 14.6552738,15.4468163 14.345286,15.1370698 L11.2449506,12.0396052 C11.2346453,12.0293078 11.2246826,12.0187927 11.2150624,12.0080742 Z" fill="#3674E1"></path>
</svg>
